# xmcd CD database file
#
# Track frame offsets:
#	150
#	39619
#	96958
#	132058
#	164480
#	222576
#	252043
#	267229
#
# Disc length: 3767 seconds
#
# Revision: 0
# Processed by: cddbd v1.5.2PL0 Copyright (c) Steve Scherf et al.
# Submitted via: CDex 1.51
#
DISCID=710eb508
DTITLE=Sampler - Jazz Tales [CD 4)
DYEAR=2007
DGENRE=Jazz
TTITLE0=Joe Henderson - Take the A-Train (for Duke Ellington)
TTITLE1=Joe Henderson - Body and Soul (for Coleman Hawkins)
TTITLE2=Billy Higgins - Some Day My Prince Will Come (for Bill Evans)
TTITLE3=Billy Higgins - Estate (for Chet Baker)
TTITLE4=Jerry Bergonzi - Inner Urge (for Joe Henderson)
TTITLE5=Jerry Bergonzi - I Want to Talk about You (for John Coltrane)
TTITLE6=Bobby Watson - Donna Lee (for Charlie Parker)
TTITLE7=Bobby Watson - Misterioso (for Thelonious Monk)
EXTD=YEAR: 2007
EXTT0=
EXTT1=
EXTT2=
EXTT3=
EXTT4=
EXTT5=
EXTT6=
EXTT7=
PLAYORDER=
